<svg width="32" height="32" viewBox="0 0 32 32" fill="none" xmlns="http://www.w3.org/2000/svg">
<rect x="1" y="1" width="30" height="30" rx="6" fill="white"/>
<rect x="1" y="1" width="30" height="30" rx="6" stroke="#111111" stroke-width="2"/>
<rect x="18" y="22" width="10" height="2" fill="#111111"/>
<path d="M27.848 16.712C27.752 17.656 27.288 18.48 26.456 19.184C25.624 19.888 24.48 20.24 23.024 20.24C21.456 20.24 20.168 19.784 19.16 18.872C18.152 17.944 17.648 16.584 17.648 14.792C17.648 13.144 18.104 11.768 19.016 10.664C19.944 9.56 21.232 9.008 22.88 9.008C24.368 9.008 25.544 9.456 26.408 10.352C27.288 11.232 27.736 12.352 27.752 13.712C27.752 14.16 27.704 14.64 27.608 15.152H20.336C20.48 17.168 21.44 18.176 23.216 18.176C24.048 18.176 24.64 17.976 24.992 17.576C25.36 17.176 25.6 16.752 25.712 16.304L27.848 16.712ZM25.112 13.568C25.176 12.928 25.024 12.328 24.656 11.768C24.304 11.192 23.704 10.904 22.856 10.904C22.088 10.904 21.504 11.16 21.104 11.672C20.704 12.184 20.456 12.816 20.36 13.568H25.112Z" fill="#111111"/>
<path d="M16.008 13.08L13.728 13.296L13.248 10.68H8.424V15.696H15.192V17.952H8.424V21.72H11.04V24H3.96V21.72H5.76V10.68H3.96V8.4H15.528L16.008 13.08Z" fill="#111111"/>
</svg>
