<svg xmlns="http://www.w3.org/2000/svg" fill="none" stroke="none" viewBox="0 0 32 16">
  <rect width="31" height="15" x=".5" y=".5" rx="1.5"/>
  <rect width="31" height="12" x=".5" y=".5" rx="1.5"/>
  <path fill="currentColor" stroke="none" d="M7.9 8.18c0 .62667-.22333 1.10333-.67 1.43-.44.32667-.99.49-1.65.49-.90667 0-1.60333-.17667-2.09-.53l.14-1.28.6.06-.04.82c.22.11333.44.19.66.23.22.04.45.06.69.06.42667 0 .79333-.09 1.1-.27.31333-.18667.47-.5.47-.94 0-.49333-.17-.81333-.51-.96-.34-.15333-.71-.27667-1.11-.37a8.76186 8.76186 0 0 1-.91-.25c-.3-.10667-.55-.27-.75-.49-.2-.22667-.3-.55333-.3-.98 0-.61333.20333-1.06667.61-1.36.41333-.29333.9-.44 1.46-.44.36 0 .72333.05 1.09.15.36667.1.65333.23.86.39l.06 1.29-.6.06-.1-.97c-.20667-.10667-.41667-.17667-.63-.21-.21333-.04-.41667-.06-.61-.06-.40667 0-.73667.09333-.99.28-.24667.18-.37.44333-.37.79 0 .40667.15.68.45.82.3.14.63333.25333 1 .34.29333.06667.60333.15333.93.26.33333.1.61667.27667.85.53.24.24667.36.61667.36 1.11ZM15.142 10h-2.26v-.57h.78V7.36c0-.48-.1-.81667-.3-1.01-.1933-.2-.4433-.3-.75-.3-.3866 0-.7033.13333-.95.4-.24.26-.3666.55333-.38.88v2.1h.77V10H9.80203v-.57h.76997V3.69h-.76997v-.57H11.282v3.23c.3267-.59333.8467-.89 1.56-.89.4334 0 .7967.13333 1.09.4.2934.26667.44.69667.44 1.29v2.28h.77V10Zm2.4357-5.6v-.91h.76v.91h-.76Zm1.55 5.6h-2.26v-.57h.78V6.12h-.8v-.57h1.5v3.88h.78V10Zm4.1028-6.98c.2066 0 .39.02.55.06.1666.04.3266.12667.48.26l.17 1.03-.57.07-.19-.76c-.1334-.05333-.3034-.08-.51-.08-.5267 0-.79.35333-.79 1.06v.89h1.15v.56h-1.15v3.32h1.01V10h-2.49v-.57h.77V6.11h-.64v-.56h.64v-.83c0-.52.1533-.93333.46-1.24.3133-.30667.6833-.46 1.11-.46Zm5.5533 5.78c-.12.86667-.59 1.3-1.41 1.3-.4466 0-.79-.12667-1.03-.38-.2333-.25333-.35-.59667-.35-1.03V6.11h-.72v-.56h.72V4.12h.7v1.43h1.74v.56h-1.74V8.6c0 .26667.0567.48333.17.65.12.16.3134.24.58.24.1734 0 .3334-.05333.48-.16.1534-.10667.2634-.34.33-.7l.53.17Z"/>
</svg>
