<svg xmlns="http://www.w3.org/2000/svg" fill="none" stroke="none" viewBox="0 0 32 16">
  <rect width="31" height="12" x=".5" y="3.5" rx="1.5"/>
  <path fill="currentColor" stroke="none" d="M7.8 11.22c0 .6133-.22 1.08-.66 1.4-.44.32-.97333.48-1.6.48-.42667 0-.81667-.0467-1.17-.14-.35333-.0933-.63333-.21-.84-.35l.12-1.19.47.05-.04.82c.21333.1133.44.1933.68.24.24.04.49333.06.76.06.45333 0 .84333-.1 1.17-.3.33333-.2067.5-.5467.5-1.02 0-.5267-.18-.87-.54-1.03-.36-.1667-.74667-.29667-1.16-.39-.3-.06667-.6-.15-.9-.25-.29333-.10667-.54-.27-.74-.49-.19333-.22-.29-.54-.29-.96 0-.58.19333-1.01667.58-1.31.38667-.29333.85667-.44 1.41-.44.34667 0 .7.04667 1.06.14.36.08667.64333.20333.85.35l.06 1.26-.47.05-.11-1.03c-.21333-.10667-.43333-.17667-.66-.21-.22667-.03333-.44-.05-.64-.05-.44667 0-.80667.10333-1.08.31-.26667.20667-.4.5-.4.88 0 .44.16.73333.48.88.32667.14667.68.26667 1.06.36.29333.06667.60333.15667.93.27.32667.10667.60333.28333.83.53.22667.24.34.6.34 1.08ZM15.0337 13h-2.2v-.46h.83v-2.21c0-.50667-.1067-.86-.32-1.06-.2134-.20667-.4834-.31-.81-.31-.4067 0-.7434.14333-1.01.43-.2667.28667-.4067.59667-.42.93v2.22h.82V13H9.73367v-.46h.82003V6.58h-.82003v-.46h1.37003V9.4c.1533-.28667.3633-.51333.63-.68.2733-.16667.5933-.25.96-.25.44 0 .8033.13667 1.09.41.2866.27333.43.71333.43 1.32v2.34h.82V13Zm2.4768-5.68v-.79h.62v.79h-.62Zm1.44 5.68h-2.2v-.46h.83V9.03h-.84v-.47h1.39v3.98h.82V13Zm4.084-6.98c.2066 0 .38.02.52.06.1466.03333.29.11.43.23l.16.99-.46.06-.18-.78c-.1334-.05333-.3167-.08-.55-.08-.58 0-.87.39333-.87 1.18v.88h1.17v.47h-1.17v3.51h1.08V13h-2.45v-.46h.82V9.03h-.66v-.47h.66V7.7c0-.53333.1533-.94667.46-1.24.3066-.29333.6533-.44 1.04-.44Zm5.4247 5.83c-.1333.8333-.5833 1.25-1.35 1.25-.4333 0-.76-.1267-.98-.38-.2133-.2533-.32-.5933-.32-1.02V9.03h-.73v-.47h.73V7.12h.55v1.44h1.77v.47h-1.77v2.61c0 .2933.06.53.18.71.12.1733.33.26.63.26.1934 0 .3667-.0567.52-.17.1534-.12.2667-.3633.34-.73l.43.14Z"/>
</svg>
