<svg xmlns="http://www.w3.org/2000/svg" fill="none" stroke="none" viewBox="0 0 32 16">
  <rect width="31" height="12" x=".5" y="3.5" rx="1.5"/>
  <path fill="currentColor" stroke="none" d="M11.7 12.55c-.5067.3667-1.2067.55-2.1.55-.94667 0-1.71-.32-2.29-.96-.58-.64-.87-1.43-.87-2.37 0-.62.13-1.18333.39-1.69.26667-.51333.62667-.92 1.08-1.22.46-.30667.98-.46 1.56-.46.5333 0 .9767.07 1.33.21.36.13333.68.31667.96.55l.18 1.17-.5.06-.2-.98c-.22-.14667-.4533-.26333-.7-.35-.2467-.09333-.57333-.14-.98-.14-.74667 0-1.35333.27-1.82.81-.46667.54-.7 1.21667-.7 2.03 0 .82.23667 1.4967.71 2.03.47333.5267 1.12333.79 1.95.79.3 0 .5633-.02.79-.06.2333-.0467.4633-.1267.69-.24l.2-.96.5.06-.18 1.17Zm5.6346-.7c-.1333.8333-.5833 1.25-1.35 1.25-.4333 0-.76-.1267-.98-.38-.2133-.2533-.32-.5933-.32-1.02V9.03h-.73v-.47h.73V7.12h.55v1.44h1.77v.47h-1.77v2.61c0 .2933.06.53.18.71.12.1733.33.26.63.26.1933 0 .3667-.0567.52-.17.1533-.12.2667-.3633.34-.73l.43.14Zm4.1426-3.37c.3133 0 .5567.07667.73.23l.16.99-.46.06-.17-.76c-.1-.02667-.2133-.04-.34-.04-.2933 0-.5333.12333-.72.37-.1867.24667-.28.56-.28.94v2.27h1.09V13h-2.47v-.46h.83V9.03h-.84v-.47h1.36v.79c.0867-.24667.2333-.45333.44-.62.2067-.16667.43-.25.67-.25Zm5.022 4.52h-2.19v-.46h.82V6.58h-.83v-.46h1.38v6.42h.82V13Z"/>
</svg>
