<svg  viewBox="0 0 16 16" fill="none" xmlns="http://www.w3.org/2000/svg">
<g clip-path="url(#clip0_198_65)">
<rect width="16" height="16" fill="white"/>
<rect x="0.5" y="0.5" width="15" height="15" stroke="black"/>
<line x1="8.39999" y1="11.5" x2="13.4" y2="11.5" stroke="black"/>
<path d="M13.424 8.356C13.376 8.828 13.144 9.24 12.728 9.592C12.312 9.944 11.74 10.12 11.012 10.12C10.228 10.12 9.584 9.892 9.08 9.436C8.576 8.972 8.324 8.292 8.324 7.396C8.324 6.572 8.552 5.884 9.008 5.332C9.472 4.78 10.116 4.504 10.94 4.504C11.684 4.504 12.272 4.728 12.704 5.176C13.144 5.616 13.368 6.176 13.376 6.856C13.376 7.08 13.352 7.32 13.304 7.576H9.668C9.74 8.584 10.22 9.088 11.108 9.088C11.524 9.088 11.82 8.988 11.996 8.788C12.18 8.588 12.3 8.376 12.356 8.152L13.424 8.356ZM12.056 6.784C12.088 6.464 12.012 6.164 11.828 5.884C11.652 5.596 11.352 5.452 10.928 5.452C10.544 5.452 10.252 5.58 10.052 5.836C9.852 6.092 9.728 6.408 9.68 6.784H12.056Z" fill="black"/>
<path d="M8.004 6.54L6.864 6.648L6.624 5.34H4.212V7.848H7.596V8.976H4.212V10.86H5.52V12H1.98V10.86H2.88V5.34H1.98V4.2H7.764L8.004 6.54Z" fill="black"/>
</g>
<defs>
<clipPath id="clip0_198_65">
<rect width="16" height="16" fill="white"/>
</clipPath>
</defs>
</svg>
