<svg xmlns="http://www.w3.org/2000/svg" width="32" height="32" fill="none" viewBox="0 0 32 32">
  <g clip-path="url(#a)">
    <rect width="30" height="30" x="1" y="1" fill="#fff" rx="6"/>
    <rect width="30" height="30" x="1" y="1" stroke="#111" stroke-width="2" rx="6"/>
    <path fill="#111" d="M18 22h10v2H18zm9.848-5.288c-.096.944-.56 1.768-1.392 2.472-.832.704-1.976 1.056-3.432 1.056-1.568 0-2.856-.456-3.864-1.368-1.008-.928-1.512-2.288-1.512-4.08 0-1.648.456-3.024 1.368-4.128.928-1.104 2.216-1.656 3.864-1.656 1.488 0 2.664.448 3.528 1.344.88.88 1.328 2 1.344 3.36 0 .448-.048.928-.144 1.44h-7.272c.144 2.016 1.104 3.024 2.88 3.024.832 0 1.424-.2 1.776-.6.368-.4.608-.824.72-1.272l2.136.408Zm-2.736-3.144a2.703 2.703 0 0 0-.456-1.8c-.352-.576-.952-.864-1.8-.864-.768 0-1.352.256-1.752.768-.4.512-.648 1.144-.744 1.896h4.752Zm-9.104-.488-2.28.216-.48-2.616H8.424v5.016h6.768v2.256H8.424v3.768h2.616V24H3.96v-2.28h1.8V10.68h-1.8V8.4h11.568l.48 4.68Z"/>
  </g>
  <defs>
    <clipPath id="a">
      <path fill="#fff" d="M0 0h32v32H0z"/>
    </clipPath>
  </defs>
</svg>
