<svg viewBox="0 0 16 16" fill="none" xmlns="http://www.w3.org/2000/svg">
<path d="M3.5 3.5H12.5C13.0523 3.5 13.5 3.94772 13.5 4.5C13.5 5.05228 13.0523 5.5 12.5 5.5H3.5C2.94772 5.5 2.5 5.05228 2.5 4.5C2.5 3.94772 2.94772 3.5 3.5 3.5Z" stroke="black"/>
<mask id="path-2-inside-1_269_120" fill="white">
<path d="M3 5H13V13C13 14.1046 12.1046 15 11 15H5C3.89543 15 3 14.1046 3 13V5Z"/>
</mask>
<path d="M3 5H13H3ZM14 13C14 14.6569 12.6569 16 11 16H5C3.34315 16 2 14.6569 2 13H4C4 13.5523 4.44772 14 5 14H11C11.5523 14 12 13.5523 12 13H14ZM5 16C3.34315 16 2 14.6569 2 13V5H4V13C4 13.5523 4.44772 14 5 14V16ZM14 5V13C14 14.6569 12.6569 16 11 16V14C11.5523 14 12 13.5523 12 13V5H14Z" fill="black" mask="url(#path-2-inside-1_269_120)"/>
<line x1="6.5" y1="8" x2="6.5" y2="12" stroke="black"/>
<line x1="9.5" y1="8" x2="9.5" y2="12" stroke="black"/>
<mask id="path-6-inside-2_269_120" fill="white">
<path d="M5 3C5 1.89543 5.89543 1 7 1H9C10.1046 1 11 1.89543 11 3V3H5V3Z"/>
</mask>
<path d="M4 3C4 1.34315 5.34315 0 7 0H9C10.6569 0 12 1.34315 12 3H10C10 2.44772 9.55228 2 9 2H7C6.44772 2 6 2.44772 6 3H4ZM11 3H5H11ZM4 3C4 1.34315 5.34315 0 7 0V2C6.44772 2 6 2.44772 6 3H4ZM9 0C10.6569 0 12 1.34315 12 3H10C10 2.44772 9.55228 2 9 2V0Z" fill="black" mask="url(#path-6-inside-2_269_120)"/>
</svg>
